<svg width="53" height="53" viewBox="0 0 53 53" fill="none" xmlns="http://www.w3.org/2000/svg">
<circle cx="26.5" cy="26.5" r="26.5" fill="white"/>
<path d="M24.2074 13.3978H26.1036V21.6371C26.1036 22.5139 25.8977 23.2907 25.4858 23.9677C25.074 24.6405 24.4949 25.1706 23.7487 25.558C23.0024 25.9414 22.1277 26.133 21.1245 26.133C20.1255 26.133 19.2528 25.9414 18.5065 25.558C17.7603 25.1706 17.1812 24.6405 16.7694 23.9677C16.3575 23.2907 16.1516 22.5139 16.1516 21.6371V13.3978H18.0417V21.4842C18.0417 22.0511 18.166 22.5547 18.4148 22.9951C18.6676 23.4355 19.0244 23.7821 19.4852 24.0349C19.946 24.2837 20.4925 24.4081 21.1245 24.4081C21.7607 24.4081 22.3092 24.2837 22.77 24.0349C23.2348 23.7821 23.5896 23.4355 23.8343 22.9951C24.083 22.5547 24.2074 22.0511 24.2074 21.4842V13.3978ZM36.5014 17.3554C36.3832 16.9843 36.2241 16.6519 36.0243 16.3583C35.8286 16.0606 35.5941 15.8078 35.3209 15.5998C35.0477 15.3878 34.7357 15.2267 34.385 15.1166C34.0384 15.0065 33.6571 14.9515 33.2412 14.9515C32.5357 14.9515 31.8995 15.1329 31.3327 15.4959C30.7659 15.8588 30.3173 16.3909 29.987 17.0923C29.6608 17.7897 29.4977 18.644 29.4977 19.6553C29.4977 20.6707 29.6628 21.5291 29.9931 22.2305C30.3234 22.9319 30.7761 23.464 31.3511 23.827C31.926 24.1899 32.5805 24.3714 33.3146 24.3714C33.9956 24.3714 34.5889 24.2327 35.0946 23.9554C35.6043 23.6781 35.9978 23.2867 36.2751 22.781C36.5565 22.2713 36.6972 21.6718 36.6972 20.9826L37.1865 21.0744H33.6021V19.5146H38.5261V20.9398C38.5261 21.9919 38.3018 22.9054 37.8532 23.6802C37.4088 24.4509 36.793 25.0463 36.006 25.4663C35.223 25.8863 34.3259 26.0963 33.3146 26.0963C32.1809 26.0963 31.1859 25.8353 30.3295 25.3134C29.4773 24.7914 28.8126 24.0513 28.3355 23.093C27.8583 22.1306 27.6198 20.9888 27.6198 19.6675C27.6198 18.6684 27.7584 17.7713 28.0357 16.9761C28.313 16.1809 28.7025 15.506 29.204 14.9515C29.7097 14.3928 30.303 13.9666 30.984 13.673C31.6691 13.3753 32.4174 13.2265 33.2289 13.2265C33.9059 13.2265 34.5359 13.3264 35.119 13.5262C35.7062 13.726 36.2282 14.0095 36.6849 14.3765C37.1457 14.7435 37.527 15.1798 37.8288 15.6855C38.1305 16.1871 38.3344 16.7437 38.4405 17.3554H36.5014ZM20.5634 31.4716H18.6549C18.5815 31.0638 18.4449 30.7049 18.2451 30.395C18.0453 30.0851 17.8006 29.8221 17.5111 29.606C17.2215 29.3898 16.8974 29.2267 16.5385 29.1166C16.1837 29.0065 15.8065 28.9515 15.4069 28.9515C14.6851 28.9515 14.0388 29.1329 13.4679 29.4959C12.901 29.8588 12.4525 30.3909 12.1222 31.0923C11.7959 31.7937 11.6328 32.6501 11.6328 33.6614C11.6328 34.6809 11.7959 35.5413 12.1222 36.2427C12.4525 36.9441 12.9031 37.4742 13.474 37.8331C14.0449 38.1919 14.6871 38.3714 15.4008 38.3714C15.7963 38.3714 16.1715 38.3184 16.5263 38.2123C16.8851 38.1022 17.2093 37.9412 17.4988 37.7291C17.7884 37.5171 18.033 37.2581 18.2329 36.9523C18.4368 36.6423 18.5774 36.2876 18.6549 35.8879L20.5634 35.8941C20.4614 36.5098 20.2637 37.0766 19.97 37.5945C19.6805 38.1083 19.3074 38.5528 18.8507 38.928C18.398 39.2991 17.8801 39.5866 17.297 39.7905C16.7139 39.9944 16.0777 40.0963 15.3885 40.0963C14.3038 40.0963 13.3374 39.8394 12.4892 39.3256C11.641 38.8077 10.9722 38.0676 10.4828 37.1052C9.99757 36.1428 9.75494 34.9949 9.75494 33.6614C9.75494 32.3239 9.99961 31.1759 10.489 30.2176C10.9783 29.2553 11.6471 28.5172 12.4953 28.0033C13.3435 27.4855 14.3079 27.2265 15.3885 27.2265C16.0532 27.2265 16.6731 27.3223 17.2481 27.514C17.8271 27.7016 18.347 27.9789 18.8078 28.3459C19.2686 28.7088 19.6499 29.1533 19.9517 29.6794C20.2535 30.2013 20.4574 30.7987 20.5634 31.4716ZM23.6791 34.3465V39.925H21.8501V27.3978H23.6546V32.0588H23.7708C23.991 31.5531 24.3275 31.1515 24.7801 30.8538C25.2328 30.5561 25.824 30.4073 26.554 30.4073C27.1983 30.4073 27.761 30.5398 28.2422 30.8049C28.7275 31.0699 29.1027 31.4655 29.3677 31.9915C29.6369 32.5135 29.7714 33.1659 29.7714 33.9489V39.925H27.9425V34.1691C27.9425 33.4799 27.7651 32.9457 27.4103 32.5665C27.0556 32.1832 26.5621 31.9915 25.9301 31.9915C25.4978 31.9915 25.1104 32.0833 24.7679 32.2668C24.4294 32.4503 24.1623 32.7194 23.9666 33.0742C23.7749 33.4249 23.6791 33.849 23.6791 34.3465ZM34.1182 40.133C33.5228 40.133 32.9845 40.0229 32.5033 39.8027C32.0221 39.5784 31.6408 39.2542 31.3595 38.8301C31.0822 38.406 30.9435 37.8861 30.9435 37.2703C30.9435 36.7402 31.0455 36.3039 31.2494 35.9613C31.4533 35.6188 31.7285 35.3476 32.0751 35.1478C32.4218 34.948 32.8092 34.7971 33.2373 34.6952C33.6655 34.5932 34.1018 34.5157 34.5463 34.4627C35.1091 34.3975 35.5658 34.3445 35.9165 34.3037C36.2672 34.2588 36.5221 34.1875 36.6811 34.0896C36.8402 33.9917 36.9197 33.8327 36.9197 33.6125V33.5697C36.9197 33.0355 36.7688 32.6216 36.467 32.3279C36.1693 32.0343 35.7248 31.8875 35.1336 31.8875C34.5178 31.8875 34.0325 32.0241 33.6777 32.2974C33.3271 32.5665 33.0844 32.8662 32.9498 33.1965L31.231 32.8051C31.4349 32.2342 31.7326 31.7734 32.1241 31.4227C32.5196 31.0679 32.9743 30.811 33.4881 30.6519C34.0019 30.4888 34.5423 30.4073 35.1091 30.4073C35.4843 30.4073 35.8818 30.4521 36.3019 30.5418C36.726 30.6275 37.1215 30.7865 37.4885 31.0189C37.8596 31.2514 38.1634 31.5837 38.3999 32.016C38.6365 32.4442 38.7547 33.0008 38.7547 33.6859V39.925H36.9686V38.6405H36.8952C36.7769 38.877 36.5996 39.1095 36.363 39.3378C36.1265 39.5662 35.8227 39.7558 35.4516 39.9067C35.0805 40.0576 34.6361 40.133 34.1182 40.133ZM34.5158 38.665C35.0214 38.665 35.4537 38.5651 35.8125 38.3653C36.1755 38.1654 36.4507 37.9045 36.6383 37.5823C36.83 37.2561 36.9258 36.9074 36.9258 36.5363V35.3252C36.8605 35.3904 36.7341 35.4516 36.5465 35.5087C36.363 35.5617 36.153 35.6086 35.9165 35.6494C35.68 35.6861 35.4496 35.7207 35.2253 35.7534C35.001 35.7819 34.8134 35.8064 34.6626 35.8268C34.3078 35.8716 33.9836 35.9471 33.69 36.0531C33.4005 36.1591 33.168 36.312 32.9927 36.5119C32.8214 36.7076 32.7358 36.9686 32.7358 37.2948C32.7358 37.7475 32.9029 38.09 33.2373 38.3224C33.5717 38.5508 33.9979 38.665 34.5158 38.665ZM44.7484 30.5296V31.9976H39.6164V30.5296H44.7484ZM40.9927 28.2786H42.8216V37.1664C42.8216 37.5211 42.8746 37.7882 42.9806 37.9677C43.0866 38.143 43.2233 38.2633 43.3905 38.3286C43.5617 38.3897 43.7473 38.4203 43.9471 38.4203C44.0939 38.4203 44.2223 38.4101 44.3324 38.3897C44.4425 38.3693 44.5282 38.353 44.5894 38.3408L44.9197 39.8516C44.8136 39.8924 44.6628 39.9332 44.467 39.974C44.2713 40.0188 44.0266 40.0433 43.733 40.0474C43.2518 40.0555 42.8032 39.9699 42.3873 39.7905C41.9713 39.6111 41.6349 39.3338 41.378 38.9586C41.1211 38.5834 40.9927 38.1124 40.9927 37.5456V28.2786Z" fill="#1751D0"/>
</svg>
